Coordinates
version=1
nRows=14
nColumns=40
inDegrees=yes

Units are S.I. units (second, meters, Newtons, ...)
If the header above contains a line with 'inDegrees', this indicates whether rotational values are in degrees (yes) or radians (no).

endheader
time	pelvis_tilt	pelvis_list	pelvis_rotation	pelvis_tx	pelvis_ty	pelvis_tz	hip_flexion_r	hip_adduction_r	hip_rotation_r	knee_angle_r	knee_angle_r_beta	ankle_angle_r	subtalar_angle_r	mtp_angle_r	hip_flexion_l	hip_adduction_l	hip_rotation_l	knee_angle_l	knee_angle_l_beta	ankle_angle_l	subtalar_angle_l	mtp_angle_l	lumbar_extension	lumbar_bending	lumbar_rotation	arm_flex_r	arm_add_r	arm_rot_r	elbow_flex_r	pro_sup_r	wrist_flex_r	wrist_dev_r	arm_flex_l	arm_add_l	arm_rot_l	elbow_flex_l	pro_sup_l	wrist_flex_l	wrist_dev_l
      2.42500000	    -34.97367009	      3.34297847	      3.35342017	     -0.43925807	      0.60570107	     -0.93651412	    103.02909786	    -18.16336796	     12.76018885	    102.94751933	      1.79677317	     36.70759531	      0.00000000	      0.00000000	    102.99655885	    -13.19918155	      1.26314471	    101.35665500	      1.76900735	     32.69304913	      0.00000000	      0.00000000	    -35.54068236	     -2.79050677	     -0.98663723	    -29.79288715	    -56.27720394	     30.43458594	    104.62038704	     88.13791467	      0.00000000	      0.00000000	     11.82850588	    -66.66250069	     72.90676400	    109.63210669	     88.22255615	      0.00000000	      0.00000000
      2.43000000	    -34.88547148	      3.23340786	      3.61822733	     -0.43930851	      0.60582779	     -0.93709368	    102.94842227	    -18.48553277	     12.72274657	    103.02281527	      1.79808733	     36.61191711	      0.00000000	      0.00000000	    102.96287928	    -12.91548216	      1.30332552	    101.34780127	      1.76885282	     32.56968447	      0.00000000	      0.00000000	    -35.67146040	     -2.49175003	     -1.31064329	    -29.51528175	    -56.45192175	     30.66792122	    104.66050673	     88.13339957	      0.00000000	      0.00000000	     11.04407153	    -66.68972210	     72.00370813	    109.64111975	     88.19306975	      0.00000000	      0.00000000
      2.43500000	    -34.91986733	      3.24426165	      3.60491950	     -0.43939475	      0.60586543	     -0.93708288	    102.95699161	    -18.45756745	     12.72983051	    102.97182064	      1.79719731	     36.69349024	      0.00000000	      0.00000000	    102.97701370	    -12.93897534	      1.26969886	    101.30297876	      1.76807052	     32.63033891	      0.00000000	      0.00000000	    -35.60051086	     -2.58903593	     -0.13822695	    -32.02227153	    -55.52543065	     28.15201488	    104.68022545	     88.15788819	      0.00000000	      0.00000000	     16.55060075	    -66.31505683	     77.79161188	    109.50451909	     88.16733700	      0.00000000	      0.00000000
      2.44000000	    -34.95464977	      3.19815328	      3.63608802	     -0.43948158	      0.60583825	     -0.93714168	    102.98219222	    -18.48113283	     12.70008191	    102.96575887	      1.79709151	     36.65133991	      0.00000000	      0.00000000	    103.03190307	    -12.91890030	      1.29693036	    101.28910185	      1.76782832	     32.56400804	      0.00000000	      0.00000000	    -35.53856997	     -2.53928547	     -0.30994185	    -31.53007549	    -55.71944852	     28.69988818	    104.64069026	     88.14589157	      0.00000000	      0.00000000	     16.09424385	    -66.37586928	     77.42364128	    109.52806525	     88.16017779	      0.00000000	      0.00000000
      2.44500000	    -35.00886567	      3.23353974	      3.46845504	     -0.43949117	      0.60565398	     -0.93677013	    103.04020603	    -18.27002573	     12.70311302	    102.94058839	      1.79665220	     36.66928005	      0.00000000	      0.00000000	    103.09771267	    -13.14907698	      1.27255568	    101.32852863	      1.76851645	     32.61978304	      0.00000000	      0.00000000	    -35.50241847	     -2.69735695	     -0.03285118	    -32.01022071	    -55.48032051	     28.16980433	    104.63195676	     88.15918586	      0.00000000	      0.00000000	     16.52680027	    -66.35258826	     77.82903615	    109.52878908	     88.16709331	      0.00000000	      0.00000000
      2.45000000	    -34.96883261	      3.17403757	      3.67875961	     -0.43958128	      0.60580223	     -0.93722853	    102.99178279	    -18.51737580	     12.69330531	    102.96638996	      1.79710252	     36.69647750	      0.00000000	      0.00000000	    103.06619083	    -12.90193210	      1.28207069	    101.28882874	      1.76782356	     32.59204045	      0.00000000	      0.00000000	    -35.56617824	     -2.50531614	     -0.18221849	    -32.02738647	    -55.54795257	     28.13874863	    104.71239772	     88.15640500	      0.00000000	      0.00000000	     16.48181579	    -66.32951569	     77.75656898	    109.50552494	     88.17099947	      0.00000000	      0.00000000
      2.45500000	    -35.06509514	      3.07593631	      3.74447463	     -0.43977971	      0.60560455	     -0.93741548	    103.09226274	    -18.59247476	     12.60453517	    102.97189310	      1.79719857	     36.55503403	      0.00000000	      0.00000000	    103.25229628	    -12.82245741	      1.38014209	    101.30613344	      1.76812558	     32.45175151	      0.00000000	      0.00000000	    -35.52482891	     -2.32957544	     -0.52721698	    -31.80005110	    -55.77261486	     28.22464706	    104.85886573	     88.15993464	      0.00000000	      0.00000000	     13.93904095	    -66.44436112	     74.84237640	    109.55877405	     88.21312898	      0.00000000	      0.00000000
      2.46000000	    -35.07286876	      3.09590690	      3.73051015	     -0.43971512	      0.60572321	     -0.93735317	    103.04952753	    -18.54650263	     12.64773307	    102.90007139	      1.79594505	     36.66933631	      0.00000000	      0.00000000	    103.22674997	    -12.83072682	      1.35484875	    101.29831547	      1.76798913	     32.52911073	      0.00000000	      0.00000000	    -35.44550572	     -2.35702799	     -1.56649502	    -28.68933442	    -56.73080488	     31.56697500	    104.57688438	     88.22550036	      0.00000000	      0.00000000	     10.34365662	    -66.75610043	     71.48101277	    109.64472505	     88.20858230	      0.00000000	      0.00000000
      2.46500000	    -35.01247891	      3.17494909	      3.77958953	     -0.43962029	      0.60586286	     -0.93745516	    103.02097043	    -18.64386419	     12.68952591	    102.93713352	      1.79659190	     36.67833093	      0.00000000	      0.00000000	    103.09819442	    -12.85180023	      1.18978620	    101.26197178	      1.76735481	     32.55168877	      0.00000000	      0.00000000	    -35.49567989	     -2.45180116	     -1.17322901	    -29.66995290	    -56.36208043	     30.67132695	    104.59541659	     88.13754697	      0.00000000	      0.00000000	     13.02240810	    -66.67322817	     74.36739697	    109.65187515	     88.16761014	      0.00000000	      0.00000000
      2.47000000	    -34.96763741	      3.17776651	      3.73770917	     -0.43956962	      0.60596227	     -0.93728568	    102.96765938	    -18.55523898	     12.72200830	    102.94883149	      1.79679607	     36.77715627	      0.00000000	      0.00000000	    103.04167011	    -12.92215461	      1.17855205	    101.25669669	      1.76726275	     32.55300135	      0.00000000	      0.00000000	    -35.58736314	     -2.45936581	     -2.06005915	    -27.35651013	    -57.07758054	     33.07411531	    104.58425838	     88.09416220	      0.00000000	      0.00000000	      8.91041149	    -66.96379803	     70.18059085	    109.81941036	     88.24821370	      0.00000000	      0.00000000
      2.47500000	    -35.04593826	      3.11797226	      3.74640285	     -0.43980495	      0.60580896	     -0.93736209	    103.04664697	    -18.55414026	     12.67142678	    102.93388826	      1.79653526	     36.69550631	      0.00000000	      0.00000000	    103.16684943	    -12.91596671	      1.22262432	    101.24425444	      1.76704559	     32.56310473	      0.00000000	      0.00000000	    -35.54507837	     -2.44112319	     -0.25724793	    -32.07363563	    -55.56004049	     28.03257915	    104.75951149	     88.17462989	      0.00000000	      0.00000000	     15.95151585	    -66.36804829	     77.15112882	    109.53154400	     88.17275716	      0.00000000	      0.00000000
      2.48000000	    -34.98975719	      3.11746244	      3.80566443	     -0.43970674	      0.60595516	     -0.93749643	    102.97805462	    -18.62963535	     12.68578382	    102.94486802	      1.79672690	     36.72787256	      0.00000000	      0.00000000	    103.09413908	    -12.85279580	      1.20996586	    101.23817130	      1.76693942	     32.53658920	      0.00000000	      0.00000000	    -35.59451635	     -2.42396012	     -0.24627212	    -32.02581767	    -55.53617648	     28.10630054	    104.69473029	     88.16075153	      0.00000000	      0.00000000	     16.52873190	    -66.32965126	     77.82681501	    109.53729872	     88.17151528	      0.00000000	      0.00000000
      2.48500000	    -35.05694326	      3.20302835	      3.57220995	     -0.43968123	      0.60582750	     -0.93697068	    103.06859304	    -18.32614498	     12.74207767	    102.92274072	      1.79634070	     36.64905489	      0.00000000	      0.00000000	    103.14130378	    -13.15931248	      1.15361045	    101.27894915	      1.76765113	     32.52129044	      0.00000000	      0.00000000	    -35.53457539	     -2.64786489	     -0.44268145	    -31.30533724	    -55.75161271	     28.85379685	    104.69631386	     88.16933571	      0.00000000	      0.00000000	     14.85164611	    -66.47064501	     76.09528846	    109.59136288	     88.19154207	      0.00000000	      0.00000000
      2.49000000	    -35.14215584	      3.12242807	      3.81699583	     -0.43994404	      0.60578314	     -0.93753145	    103.14546509	    -18.58659880	     12.73819038	    102.90092876	      1.79596001	     36.72197342	      0.00000000	      0.00000000	    103.24777344	    -12.86412333	      1.17123376	    101.19268499	      1.76614553	     32.54428597	      0.00000000	      0.00000000	    -35.50739148	     -2.40477503	     -0.81569878	    -31.11864432	    -55.88064225	     28.94081750	    104.75275547	     88.12118097	      0.00000000	      0.00000000	     13.28281430	    -66.55293064	     74.41391274	    109.57801965	     88.20582083	      0.00000000	      0.00000000
